HIERARCHY
ROOT mug2
{
	OFFSET 0.000000 0.000000 0.000000
	CHANNELS 6 Xposition Yposition Zposition Yrotation Xrotation Zrotation
	End Site
	{
		OFFSET 0.000000 0.000000 0.000000
	}
}
MOTION
Frames: 172
Frame Time: 0.008333334
2.431134 3.312376 1.999234 37.093440 1.782551 -1.446381 
2.427737 3.312698 1.993565 36.446660 1.713797 -1.551758 
2.425070 3.312117 1.988161 35.772610 1.642716 -1.510834 
2.421607 3.311944 1.983186 34.946050 1.669793 -1.456940 
2.418018 3.312464 1.978505 34.003930 1.629142 -1.660889 
2.414955 3.311739 1.974786 33.097860 1.500484 -1.469696 
2.411408 3.311483 1.970341 32.037360 1.467783 -1.466034 
2.407800 3.311563 1.966506 30.921100 1.410622 -1.454071 
2.404092 3.311746 1.962224 29.630100 1.401903 -1.403168 
2.400277 3.311719 1.958512 28.412910 1.260916 -1.377380 
2.396158 3.311740 1.954635 26.980410 1.256899 -1.326782 
2.391451 3.312071 1.950414 25.466630 1.137314 -1.443512 
2.387551 3.311713 1.946312 23.914360 1.054068 -1.334503 
2.383204 3.311532 1.942983 22.264290 0.994265 -1.174316 
2.378232 3.311844 1.939191 20.288670 0.771421 -1.249512 
2.373517 3.311882 1.935255 18.283500 0.805147 -1.266083 
2.369994 3.311982 1.933291 16.249830 0.672357 -1.131805 
2.365334 3.312056 1.931767 13.913860 0.585351 -1.070587 
2.360418 3.311960 1.932390 11.570950 0.538723 -0.968048 
2.355748 3.312160 1.933537 9.185081 0.434576 -0.797089 
2.350798 3.312733 1.935852 6.776396 0.307960 -0.666321 
2.345234 3.312543 1.938525 4.354284 0.163902 -0.562195 
2.339603 3.313281 1.942902 1.948948 0.069305 -0.563721 
2.333730 3.313541 1.946363 -0.345001 0.094771 -0.383667 
2.328288 3.314037 1.950469 -2.507019 0.050968 -0.383881 
2.322825 3.314607 1.955072 -4.589264 -0.031677 -0.243988 
2.317161 3.314865 1.959880 -6.665100 -0.098328 -0.181915 
2.311638 3.314826 1.965168 -8.609039 -0.112824 -0.044464 
2.306778 3.315976 1.968853 -10.427030 -0.132385 0.046046 
2.301849 3.316082 1.973107 -12.180820 -0.273926 0.148224 
2.296465 3.316755 1.976875 -13.866760 -0.403839 0.199896 
2.291797 3.316534 1.980056 -15.398220 -0.355438 0.277378 
2.287130 3.317009 1.981943 -16.921050 -0.352264 0.349449 
2.282568 3.316843 1.984764 -18.295650 -0.297882 0.522795 
2.278373 3.316631 1.986978 -19.614780 -0.381073 0.489386 
2.274269 3.317103 1.987746 -20.857510 -0.455841 0.448107 
2.270714 3.317013 1.989153 -21.915740 -0.408966 0.625416 
2.267326 3.317090 1.990136 -22.930300 -0.388641 0.789744 
2.263880 3.317542 1.991733 -23.908020 -0.427124 0.755377 
2.260919 3.317742 1.992499 -24.816380 -0.488464 0.819614 
2.258376 3.317571 1.993707 -25.655580 -0.436157 0.819829 
2.256290 3.317847 1.994465 -26.415500 -0.462555 0.835050 
2.254412 3.317784 1.995285 -26.964450 -0.454834 0.904177 
2.252411 3.318276 1.996188 -27.478520 -0.468506 0.983498 
2.249848 3.318460 1.996608 -27.985870 -0.561646 1.007447 
2.248926 3.318558 1.997198 -28.381530 -0.499847 1.006696 
2.247975 3.318708 1.997858 -28.727840 -0.521545 1.002966 
2.246805 3.318543 1.998315 -28.993800 -0.477875 1.024709 
2.246055 3.318666 1.998581 -29.204280 -0.497467 1.095001 
2.245679 3.318913 1.998429 -29.343510 -0.552368 1.057281 
2.245445 3.318804 1.998584 -29.348690 -0.560852 1.087590 
2.245628 3.318910 1.998408 -29.358220 -0.550171 1.057379 
2.245855 3.318760 1.998372 -29.357210 -0.515930 1.073320 
2.245996 3.318680 1.998196 -29.363100 -0.519440 1.064598 
2.245890 3.318710 1.998020 -29.383000 -0.545563 1.060823 
2.246134 3.318488 1.998077 -29.337710 -0.489044 1.087856 
2.245976 3.318565 1.997909 -29.363830 -0.529785 1.077577 
2.245963 3.318582 1.997874 -29.369750 -0.527924 1.073087 
2.245850 3.318584 1.998102 -29.345120 -0.532257 1.079600 
2.245707 3.318662 1.998178 -29.354770 -0.518890 1.080357 
2.245771 3.318628 1.998061 -29.367580 -0.522186 1.085795 
2.245936 3.318589 1.998242 -29.337650 -0.517059 1.080703 
2.245899 3.318632 1.998382 -29.332760 -0.507874 1.070263 
2.245924 3.318583 1.998566 -29.316440 -0.487000 1.081719 
2.246280 3.318765 1.998675 -29.272400 -0.488037 1.190701 
2.246493 3.319527 1.998669 -29.245790 -0.554413 1.366571 
2.246475 3.319454 1.998658 -29.265290 -0.561493 1.296319 
2.246239 3.319101 1.998549 -29.290680 -0.538117 1.188060 
2.246101 3.318938 1.998680 -29.288300 -0.535492 1.164639 
2.246048 3.319022 1.998580 -29.292240 -0.519257 1.169889 
2.246168 3.319172 1.998645 -29.301120 -0.516388 1.270179 
2.245797 3.318576 1.998557 -29.347900 -0.470917 1.095897 
2.245998 3.318772 1.998352 -29.318080 -0.481415 1.204173 
2.245919 3.318864 1.998261 -29.344360 -0.500244 1.194452 
2.246370 3.318985 1.998366 -29.304930 -0.449951 1.215881 
2.246231 3.319132 1.998306 -29.317810 -0.502869 1.198373 
2.246025 3.319037 1.998268 -29.325290 -0.523285 1.193676 
2.246045 3.319135 1.998245 -29.328800 -0.517059 1.188548 
2.246098 3.319553 1.998395 -29.289490 -0.594086 1.319799 
2.246043 3.319423 1.998428 -29.283140 -0.557404 1.295800 
2.245979 3.319303 1.998532 -29.276700 -0.572601 1.295280 
2.245991 3.319308 1.998554 -29.287050 -0.559784 1.281253 
2.246005 3.319349 1.998537 -29.287380 -0.534912 1.274846 
2.245691 3.319000 1.998704 -29.339200 -0.495026 1.132047 
2.245917 3.319143 1.998705 -29.318240 -0.513825 1.211554 
2.245510 3.318715 1.998838 -29.356450 -0.523743 1.106756 
2.245390 3.318793 1.998763 -29.346280 -0.523926 1.118181 
2.245325 3.319074 1.998294 -29.344330 -0.536713 1.207216 
2.245465 3.318933 1.997721 -29.410030 -0.560486 1.228462 
2.245446 3.318753 1.997012 -29.552000 -0.543671 1.210643 
2.245419 3.318565 1.995216 -29.773590 -0.581970 1.287421 
2.245347 3.318320 1.993348 -30.100370 -0.543701 1.320836 
2.245056 3.317903 1.991242 -30.654420 -0.514618 1.236970 
2.244761 3.318286 1.988576 -31.283290 -0.524353 1.362303 
2.243574 3.318253 1.986583 -32.178160 -0.484100 1.401137 
2.241712 3.317749 1.985347 -33.211210 -0.525940 1.368978 
2.239613 3.317850 1.983878 -34.496190 -0.479218 1.457252 
2.236643 3.318409 1.983274 -35.889560 -0.577850 1.543225 
2.233361 3.318422 1.982912 -37.428710 -0.498596 1.579113 
2.230052 3.318749 1.982654 -38.946560 -0.566742 1.625616 
2.226215 3.319724 1.982960 -40.441930 -0.516815 1.933802 
2.221318 3.318935 1.983829 -41.971830 -0.503235 1.702180 
2.217254 3.319884 1.984660 -43.416260 -0.600250 2.075706 
2.212225 3.320128 1.985717 -44.754880 -0.601166 2.068785 
2.207478 3.320102 1.986717 -45.859710 -0.592865 2.108629 
2.203227 3.320430 1.987292 -46.822420 -0.594666 2.156584 
2.199709 3.320763 1.988124 -47.576750 -0.533447 2.226511 
2.195729 3.320595 1.988692 -48.365200 -0.501129 2.156420 
2.192846 3.320395 1.989638 -49.039700 -0.465363 2.125000 
2.189876 3.320342 1.990541 -49.690370 -0.487793 2.200312 
2.187016 3.320137 1.991490 -50.315220 -0.447388 2.192457 
2.184757 3.320516 1.992121 -50.895780 -0.449616 2.288585 
2.182575 3.321128 1.992950 -51.448730 -0.523438 2.287857 
2.180285 3.320353 1.993797 -51.883970 -0.468048 2.240468 
2.178233 3.320428 1.994558 -52.337250 -0.465485 2.268996 
2.176737 3.320406 1.995667 -52.631930 -0.467743 2.260098 
2.175497 3.320675 1.996124 -52.862120 -0.453644 2.298802 
2.174912 3.320700 1.997015 -53.009550 -0.462891 2.340482 
2.174422 3.320779 1.997609 -53.088230 -0.452179 2.342744 
2.174644 3.320849 1.997710 -53.095860 -0.449249 2.332828 
2.174847 3.320820 1.998057 -53.107910 -0.441620 2.315929 
2.174800 3.320990 1.998083 -53.101680 -0.442261 2.348791 
2.174803 3.321044 1.998131 -53.108610 -0.442596 2.351200 
2.174883 3.320857 1.998175 -53.122590 -0.431244 2.313206 
2.174908 3.320594 1.998111 -53.121340 -0.483551 2.314461 
2.174714 3.320811 1.997917 -53.123780 -0.424835 2.329097 
2.174707 3.320784 1.997726 -53.114040 -0.439026 2.346806 
2.174678 3.320776 1.997615 -53.116030 -0.450775 2.345472 
2.174232 3.320490 1.997363 -53.104520 -0.509644 2.332277 
2.174183 3.320816 1.996885 -53.118410 -0.507080 2.320052 
2.174377 3.320872 1.997004 -53.135930 -0.464172 2.285533 
2.174212 3.320612 1.996976 -53.120420 -0.478333 2.296326 
2.174437 3.320565 1.997381 -53.137390 -0.474060 2.244252 
2.174561 3.320675 1.997302 -53.127900 -0.476105 2.259902 
2.174360 3.320890 1.997515 -53.148680 -0.508240 2.247000 
2.174578 3.320730 1.997658 -53.132320 -0.467651 2.271776 
2.174609 3.320674 1.997697 -53.143950 -0.465424 2.275481 
2.174392 3.320658 1.997324 -53.173160 -0.472015 2.286268 
2.174281 3.320571 1.996904 -53.239010 -0.468658 2.281606 
2.174257 3.320377 1.996354 -53.361330 -0.455963 2.249020 
2.173739 3.320393 1.995225 -53.569340 -0.465820 2.292124 
2.173868 3.320103 1.994137 -53.858890 -0.404114 2.310773 
2.173840 3.320212 1.993135 -54.209810 -0.472473 2.281207 
2.173708 3.320168 1.991764 -54.583130 -0.459839 2.324490 
2.174067 3.319900 1.990098 -54.957400 -0.456787 2.318917 
2.174635 3.319839 1.988284 -55.350250 -0.467835 2.351412 
2.175375 3.320023 1.986324 -55.697850 -0.458160 2.343695 
2.175943 3.319999 1.983988 -56.098750 -0.414917 2.419808 
2.176372 3.320006 1.982243 -56.483250 -0.414246 2.437764 
2.176824 3.320009 1.980468 -56.894410 -0.410004 2.420429 
2.176478 3.320379 1.979072 -57.277470 -0.389191 2.468845 
2.175584 3.320008 1.977618 -57.610020 -0.306427 2.479223 
2.175171 3.320097 1.976254 -57.773500 -0.321289 2.449389 
2.174659 3.319968 1.974637 -57.937260 -0.312927 2.445284 
2.174580 3.319630 1.973067 -57.998440 -0.324646 2.454293 
2.174024 3.319544 1.971076 -58.066860 -0.330536 2.484769 
2.173492 3.319326 1.968919 -58.124820 -0.341309 2.492155 
2.173062 3.319208 1.966770 -58.150820 -0.339508 2.524704 
2.171907 3.319337 1.964450 -58.233400 -0.459595 2.506558 
2.172056 3.319251 1.962823 -58.181340 -0.337158 2.551932 
2.171561 3.319077 1.960727 -58.187130 -0.319794 2.510700 
2.171581 3.319487 1.958225 -58.219060 -0.296722 2.469844 
2.171446 3.319385 1.956630 -58.304200 -0.292053 2.475916 
2.171950 3.319026 1.954659 -58.459050 -0.238525 2.447181 
2.171793 3.318681 1.953181 -58.576660 -0.308533 2.463405 
2.171932 3.318784 1.951005 -58.668550 -0.259644 2.546974 
2.172263 3.318561 1.948510 -58.756680 -0.278565 2.549295 
2.172197 3.318491 1.945678 -58.786650 -0.286133 2.506065 
2.171518 3.318613 1.942356 -58.723790 -0.310364 2.506778 
2.171143 3.318514 1.938827 -58.671510 -0.308228 2.497952 
2.170977 3.318470 1.934971 -58.551510 -0.325562 2.556942 
2.171011 3.318555 1.930979 -58.496430 -0.263947 2.504352 
